<?xml version="1.0" standalone="no"?><!DOCTYPE svg PUBLIC "-//W3C//DTD SVG 1.1//EN" "http://www.w3.org/Graphics/SVG/1.1/DTD/svg11.dtd"><svg class="icon" height="512" viewBox="0 0 1024 1024" version="1.1" xmlns="http://www.w3.org/2000/svg"><path d="M843.349333 452.864l-307.285333-314.666667a33.450667 33.450667 0 0 0-1.194667-1.152l-0.64-0.554666-0.64-0.597334-0.768-0.597333-0.512-0.426667-0.896-0.64-0.469333-0.341333a33.706667 33.706667 0 0 0-0.938667-0.597333l-0.426666-0.298667a34.048 34.048 0 0 0-0.981334-0.554667l-0.512-0.298666a30.677333 30.677333 0 0 0-0.853333-0.469334l-0.64-0.298666a31.104 31.104 0 0 0-0.853333-0.426667l-0.725334-0.298667-0.725333-0.298666a33.024 33.024 0 0 0-2.432-0.853334l-0.597333-0.170666a31.744 31.744 0 0 0-1.024-0.298667l-0.554667-0.128a33.792 33.792 0 0 0-1.066667-0.213333l-0.554666-0.128-1.066667-0.170667-0.64-0.085333-1.024-0.128-0.853333-0.085334-0.810667-0.042666a33.792 33.792 0 0 0-3.328 0l-0.853333 0.042666-0.853334 0.085334-0.981333 0.128-0.64 0.085333-1.066667 0.170667-0.554666 0.128a31.189333 31.189333 0 0 0-1.066667 0.213333l-0.554667 0.128-1.024 0.298667-0.597333 0.170666a32.896 32.896 0 0 0-0.938667 0.298667l-0.64 0.256a33.024 33.024 0 0 0-1.578666 0.597333l-0.768 0.341334a36.693333 36.693333 0 0 0-0.810667 0.384l-0.597333 0.298666-0.64 0.298667-0.256 0.170667-0.512 0.298666a35.584 35.584 0 0 0-0.938667 0.554667l-0.469333 0.298667-0.170667 0.085333-0.768 0.512-0.426667 0.341333-0.938666 0.64-0.512 0.426667-0.768 0.597333-0.64 0.597334-0.384 0.298666-0.256 0.256a36.010667 36.010667 0 0 0-1.194667 1.152l-307.285333 314.666667a35.456 35.456 0 0 0 0 49.322667c13.269333 13.610667 34.858667 13.610667 48.170666 0l249.130667-255.146667v614.101333c0 19.242667 15.232 34.858667 34.048 34.858667 18.773333 0 34.048-15.616 34.048-34.858667V247.04l249.173333 255.146667c13.269333 13.610667 34.858667 13.610667 48.128 0a35.456 35.456 0 0 0 0-49.322667z" fill="#353D48" /></svg>